<mxfile host="app.diagrams.net" modified="2022-11-28T19:38:59.666Z" agent="5.0 (Macintosh; Intel Mac OS X 10_15_7) AppleWebKit/605.1.15 (KHTML, like Gecko) Version/16.1 Safari/605.1.15" version="20.6.0" etag="NYPGTV03jH5nu5B1xi5U" type="github">
  <diagram id="Qp-VQWpf0DSbihYRk-4Y" name="Страница 1">
    <mxGraphModel dx="872" dy="666" grid="1" gridSize="10" guides="1" tooltips="1" connect="1" arrows="1" fold="1" page="1" pageScale="1" pageWidth="827" pageHeight="1169" math="0" shadow="0">
      <root>
        <mxCell id="0" />
        <mxCell id="1" parent="0" />
        <mxCell id="x_L7BXRBEMguW8WGx2yB-3" style="edgeStyle=orthogonalEdgeStyle;rounded=0;orthogonalLoop=1;jettySize=auto;html=1;entryX=0.479;entryY=-0.033;entryDx=0;entryDy=0;entryPerimeter=0;" edge="1" parent="1">
          <mxGeometry relative="1" as="geometry">
            <mxPoint x="418" y="90" as="sourcePoint" />
            <mxPoint x="415.43000000000006" y="158.01999999999998" as="targetPoint" />
            <Array as="points">
              <mxPoint x="415" y="90" />
            </Array>
          </mxGeometry>
        </mxCell>
        <mxCell id="x_L7BXRBEMguW8WGx2yB-1" value="Start" style="ellipse;whiteSpace=wrap;html=1;" vertex="1" parent="1">
          <mxGeometry x="354" y="40" width="120" height="50" as="geometry" />
        </mxCell>
        <mxCell id="x_L7BXRBEMguW8WGx2yB-5" style="edgeStyle=orthogonalEdgeStyle;rounded=0;orthogonalLoop=1;jettySize=auto;html=1;entryX=0.5;entryY=0;entryDx=0;entryDy=0;" edge="1" parent="1" source="x_L7BXRBEMguW8WGx2yB-2" target="x_L7BXRBEMguW8WGx2yB-4">
          <mxGeometry relative="1" as="geometry" />
        </mxCell>
        <mxCell id="x_L7BXRBEMguW8WGx2yB-2" value="string[] oneArray&lt;br&gt;string[] twoArray&lt;br&gt;" style="shape=parallelogram;perimeter=parallelogramPerimeter;whiteSpace=wrap;html=1;fixedSize=1;" vertex="1" parent="1">
          <mxGeometry x="330" y="160" width="170" height="50" as="geometry" />
        </mxCell>
        <mxCell id="x_L7BXRBEMguW8WGx2yB-8" style="edgeStyle=orthogonalEdgeStyle;rounded=0;orthogonalLoop=1;jettySize=auto;html=1;entryX=0.5;entryY=0;entryDx=0;entryDy=0;" edge="1" parent="1" source="x_L7BXRBEMguW8WGx2yB-4" target="x_L7BXRBEMguW8WGx2yB-7">
          <mxGeometry relative="1" as="geometry" />
        </mxCell>
        <mxCell id="x_L7BXRBEMguW8WGx2yB-4" value="int count = 0" style="rounded=0;whiteSpace=wrap;html=1;" vertex="1" parent="1">
          <mxGeometry x="355" y="250" width="120" height="60" as="geometry" />
        </mxCell>
        <mxCell id="x_L7BXRBEMguW8WGx2yB-11" value="yes" style="edgeStyle=orthogonalEdgeStyle;rounded=0;orthogonalLoop=1;jettySize=auto;html=1;entryX=0.463;entryY=1.067;entryDx=0;entryDy=0;entryPerimeter=0;" edge="1" parent="1" source="x_L7BXRBEMguW8WGx2yB-6" target="x_L7BXRBEMguW8WGx2yB-10">
          <mxGeometry relative="1" as="geometry" />
        </mxCell>
        <mxCell id="x_L7BXRBEMguW8WGx2yB-6" value="if(oneArray[i].Lenght &amp;lt;= 3)" style="rhombus;whiteSpace=wrap;html=1;" vertex="1" parent="1">
          <mxGeometry x="295" y="490" width="240" height="80" as="geometry" />
        </mxCell>
        <mxCell id="x_L7BXRBEMguW8WGx2yB-9" value="yes" style="edgeStyle=orthogonalEdgeStyle;rounded=0;orthogonalLoop=1;jettySize=auto;html=1;entryX=0.5;entryY=0;entryDx=0;entryDy=0;" edge="1" parent="1" source="x_L7BXRBEMguW8WGx2yB-7" target="x_L7BXRBEMguW8WGx2yB-6">
          <mxGeometry relative="1" as="geometry" />
        </mxCell>
        <mxCell id="x_L7BXRBEMguW8WGx2yB-14" value="no" style="edgeStyle=orthogonalEdgeStyle;rounded=0;orthogonalLoop=1;jettySize=auto;html=1;entryX=0;entryY=0.5;entryDx=0;entryDy=0;" edge="1" parent="1" source="x_L7BXRBEMguW8WGx2yB-7" target="x_L7BXRBEMguW8WGx2yB-13">
          <mxGeometry relative="1" as="geometry" />
        </mxCell>
        <mxCell id="x_L7BXRBEMguW8WGx2yB-7" value="for (int i = 0; i &amp;lt; oneArray.Lenght; i++)" style="rhombus;whiteSpace=wrap;html=1;" vertex="1" parent="1">
          <mxGeometry x="280" y="350" width="270" height="80" as="geometry" />
        </mxCell>
        <mxCell id="x_L7BXRBEMguW8WGx2yB-12" style="edgeStyle=orthogonalEdgeStyle;rounded=0;orthogonalLoop=1;jettySize=auto;html=1;entryX=0;entryY=0.5;entryDx=0;entryDy=0;" edge="1" parent="1" source="x_L7BXRBEMguW8WGx2yB-10" target="x_L7BXRBEMguW8WGx2yB-7">
          <mxGeometry relative="1" as="geometry">
            <Array as="points">
              <mxPoint x="130" y="390" />
            </Array>
          </mxGeometry>
        </mxCell>
        <mxCell id="x_L7BXRBEMguW8WGx2yB-10" value="twoArray[count] = oneArray[i]&lt;br&gt;count++" style="rounded=0;whiteSpace=wrap;html=1;" vertex="1" parent="1">
          <mxGeometry x="50" y="420" width="160" height="60" as="geometry" />
        </mxCell>
        <mxCell id="x_L7BXRBEMguW8WGx2yB-16" style="edgeStyle=orthogonalEdgeStyle;rounded=0;orthogonalLoop=1;jettySize=auto;html=1;entryX=0.5;entryY=0;entryDx=0;entryDy=0;" edge="1" parent="1" source="x_L7BXRBEMguW8WGx2yB-13" target="x_L7BXRBEMguW8WGx2yB-15">
          <mxGeometry relative="1" as="geometry" />
        </mxCell>
        <mxCell id="x_L7BXRBEMguW8WGx2yB-13" value="PrintArray(twoArray)&lt;br&gt;" style="shape=document;whiteSpace=wrap;html=1;boundedLbl=1;" vertex="1" parent="1">
          <mxGeometry x="640" y="350" width="170" height="80" as="geometry" />
        </mxCell>
        <mxCell id="x_L7BXRBEMguW8WGx2yB-15" value="end" style="ellipse;whiteSpace=wrap;html=1;" vertex="1" parent="1">
          <mxGeometry x="665" y="470" width="120" height="80" as="geometry" />
        </mxCell>
      </root>
    </mxGraphModel>
  </diagram>
</mxfile>
